%TF.GenerationSoftware,KiCad,Pcbnew,9.0.7*%
%TF.CreationDate,2026-05-25T12:49:04+05:30*%
%TF.ProjectId,STM32,53544d33-322e-46b6-9963-61645f706362,rev?*%
%TF.SameCoordinates,Original*%
%TF.FileFunction,Plated,1,4,PTH,Mixed*%
%TF.FilePolarity,Positive*%
%FSLAX46Y46*%
G04 Gerber Fmt 4.6, Leading zero omitted, Abs format (unit mm)*
G04 Created by KiCad (PCBNEW 9.0.7) date 2026-05-25 12:49:04*
%MOMM*%
%LPD*%
G01*
G04 APERTURE LIST*
%TA.AperFunction,ViaDrill*%
%ADD10C,0.300000*%
%TD*%
G04 aperture for slot hole*
%TA.AperFunction,ComponentDrill*%
%ADD11C,0.550000*%
%TD*%
G04 aperture for slot hole*
%TA.AperFunction,ComponentDrill*%
%ADD12C,0.850000*%
%TD*%
%TA.AperFunction,ComponentDrill*%
%ADD13C,1.000000*%
%TD*%
G04 APERTURE END LIST*
D10*
X89500000Y-65750000D03*
X91250000Y-60250000D03*
X94000000Y-63250000D03*
X99000000Y-59750000D03*
X103000000Y-57500000D03*
X103750000Y-54250000D03*
X104250000Y-70750000D03*
X106250000Y-72000000D03*
X106500000Y-73250000D03*
X107650000Y-66750000D03*
X107999390Y-61950000D03*
X108750000Y-82500000D03*
X108829149Y-60750001D03*
X110750000Y-68250000D03*
X111058822Y-62370600D03*
X113100000Y-58123000D03*
X113100000Y-59300000D03*
X115000000Y-55500000D03*
X115000000Y-56800000D03*
X117250000Y-69000000D03*
X119000000Y-72000000D03*
X120250000Y-67500000D03*
D11*
%TO.C,J1*%
X126520000Y-64930000D02*
X125870000Y-64930000D01*
X126520000Y-72680000D02*
X125870000Y-72680000D01*
D12*
X122670000Y-65080000D02*
X122120000Y-65080000D01*
X122670000Y-72530000D02*
X122120000Y-72530000D01*
D13*
%TO.C,I2C*%
X99820000Y-75800000D03*
X102360000Y-75800000D03*
X104900000Y-75800000D03*
%TO.C,J3*%
X107390000Y-51500000D03*
%TO.C,I2C*%
X107440000Y-75800000D03*
%TO.C,J3*%
X109930000Y-51500000D03*
X112470000Y-51500000D03*
X115010000Y-51500000D03*
%TO.C,J2*%
X119900000Y-53620000D03*
X119900000Y-56160000D03*
X119900000Y-58700000D03*
X119900000Y-61240000D03*
M02*
