%TF.GenerationSoftware,KiCad,Pcbnew,9.0.7*%
%TF.CreationDate,2026-05-25T12:49:04+05:30*%
%TF.ProjectId,STM32,53544d33-322e-46b6-9963-61645f706362,rev?*%
%TF.SameCoordinates,Original*%
%TF.FileFunction,Drillmap*%
%TF.FilePolarity,Positive*%
%FSLAX45Y45*%
G04 Gerber Fmt 4.5, Leading zero omitted, Abs format (unit mm)*
G04 Created by KiCad (PCBNEW 9.0.7) date 2026-05-25 12:49:04*
%MOMM*%
%LPD*%
G01*
G04 APERTURE LIST*
%ADD10C,0.038100*%
%ADD11C,0.200000*%
%ADD12C,0.100000*%
G04 APERTURE END LIST*
D10*
X8800000Y-5110000D02*
X8800000Y-8110000D01*
X9100000Y-8420000D02*
X12500000Y-8417868D01*
X12797621Y-8107868D02*
G75*
G02*
X12500000Y-8417868I-297621J-12132D01*
G01*
X9100000Y-4810000D02*
X12500000Y-4820000D01*
X12500000Y-4820000D02*
G75*
G02*
X12800000Y-5120000I0J-300000D01*
G01*
X9100000Y-8420167D02*
G75*
G02*
X8800000Y-8110000I0J300167D01*
G01*
X12797868Y-8107868D02*
X12800000Y-5120000D01*
X8800000Y-5110000D02*
G75*
G02*
X9100000Y-4810000I300000J0D01*
G01*
D11*
D12*
X8935000Y-6560000D02*
X8965000Y-6590000D01*
X8965000Y-6560000D02*
X8935000Y-6590000D01*
X9110000Y-6010000D02*
X9140000Y-6040000D01*
X9140000Y-6010000D02*
X9110000Y-6040000D01*
X9385000Y-6310000D02*
X9415000Y-6340000D01*
X9415000Y-6310000D02*
X9385000Y-6340000D01*
X9885000Y-5960000D02*
X9915000Y-5990000D01*
X9915000Y-5960000D02*
X9885000Y-5990000D01*
X10285000Y-5735000D02*
X10315000Y-5765000D01*
X10315000Y-5735000D02*
X10285000Y-5765000D01*
X10360000Y-5410000D02*
X10390000Y-5440000D01*
X10390000Y-5410000D02*
X10360000Y-5440000D01*
X10410000Y-7060000D02*
X10440000Y-7090000D01*
X10440000Y-7060000D02*
X10410000Y-7090000D01*
X10610000Y-7185000D02*
X10640000Y-7215000D01*
X10640000Y-7185000D02*
X10610000Y-7215000D01*
X10635000Y-7310000D02*
X10665000Y-7340000D01*
X10665000Y-7310000D02*
X10635000Y-7340000D01*
X10750000Y-6660000D02*
X10780000Y-6690000D01*
X10780000Y-6660000D02*
X10750000Y-6690000D01*
X10784939Y-6180000D02*
X10814939Y-6210000D01*
X10814939Y-6180000D02*
X10784939Y-6210000D01*
X10860000Y-8235000D02*
X10890000Y-8265000D01*
X10890000Y-8235000D02*
X10860000Y-8265000D01*
X10867915Y-6060000D02*
X10897915Y-6090000D01*
X10897915Y-6060000D02*
X10867915Y-6090000D01*
X11060000Y-6810000D02*
X11090000Y-6840000D01*
X11090000Y-6810000D02*
X11060000Y-6840000D01*
X11090882Y-6222060D02*
X11120882Y-6252060D01*
X11120882Y-6222060D02*
X11090882Y-6252060D01*
X11295000Y-5797300D02*
X11325000Y-5827300D01*
X11325000Y-5797300D02*
X11295000Y-5827300D01*
X11295000Y-5915000D02*
X11325000Y-5945000D01*
X11325000Y-5915000D02*
X11295000Y-5945000D01*
X11485000Y-5535000D02*
X11515000Y-5565000D01*
X11515000Y-5535000D02*
X11485000Y-5565000D01*
X11485000Y-5665000D02*
X11515000Y-5695000D01*
X11515000Y-5665000D02*
X11485000Y-5695000D01*
X11710000Y-6885000D02*
X11740000Y-6915000D01*
X11740000Y-6885000D02*
X11710000Y-6915000D01*
X11885000Y-7185000D02*
X11915000Y-7215000D01*
X11915000Y-7185000D02*
X11885000Y-7215000D01*
X12010000Y-6735000D02*
X12040000Y-6765000D01*
X12040000Y-6735000D02*
X12010000Y-6765000D01*
X12647000Y-6493000D02*
G75*
G02*
X12592000Y-6493000I-27500J0D01*
G01*
X12592000Y-6493000D02*
G75*
G02*
X12647000Y-6493000I27500J0D01*
G01*
X12587000Y-6520500D02*
X12652000Y-6520500D01*
X12652000Y-6465500D02*
G75*
G02*
X12652000Y-6520500I0J-27500D01*
G01*
X12652000Y-6465500D02*
X12587000Y-6465500D01*
X12587000Y-6465500D02*
G75*
G03*
X12587000Y-6520500I0J-27500D01*
G01*
X12647000Y-7268000D02*
G75*
G02*
X12592000Y-7268000I-27500J0D01*
G01*
X12592000Y-7268000D02*
G75*
G02*
X12647000Y-7268000I27500J0D01*
G01*
X12587000Y-7295500D02*
X12652000Y-7295500D01*
X12652000Y-7240500D02*
G75*
G02*
X12652000Y-7295500I0J-27500D01*
G01*
X12652000Y-7240500D02*
X12587000Y-7240500D01*
X12587000Y-7240500D02*
G75*
G03*
X12587000Y-7295500I0J-27500D01*
G01*
X12239500Y-6465500D02*
X12239500Y-6550500D01*
X12197000Y-6508000D02*
X12282000Y-6508000D01*
X12212000Y-6550500D02*
X12267000Y-6550500D01*
X12267000Y-6465500D02*
G75*
G02*
X12267000Y-6550500I0J-42500D01*
G01*
X12267000Y-6465500D02*
X12212000Y-6465500D01*
X12212000Y-6465500D02*
G75*
G03*
X12212000Y-6550500I0J-42500D01*
G01*
X12239500Y-7210500D02*
X12239500Y-7295500D01*
X12197000Y-7253000D02*
X12282000Y-7253000D01*
X12212000Y-7295500D02*
X12267000Y-7295500D01*
X12267000Y-7210500D02*
G75*
G02*
X12267000Y-7295500I0J-42500D01*
G01*
X12267000Y-7210500D02*
X12212000Y-7210500D01*
X12212000Y-7210500D02*
G75*
G03*
X12212000Y-7295500I0J-42500D01*
G01*
X10017356Y-7615356D02*
X10017356Y-7544644D01*
X9946644Y-7544644D01*
X9946644Y-7615356D01*
X10017356Y-7615356D01*
X10271356Y-7615356D02*
X10271356Y-7544644D01*
X10200644Y-7544644D01*
X10200644Y-7615356D01*
X10271356Y-7615356D01*
X10525356Y-7615356D02*
X10525356Y-7544644D01*
X10454644Y-7544644D01*
X10454644Y-7615356D01*
X10525356Y-7615356D01*
X10774356Y-5185356D02*
X10774356Y-5114644D01*
X10703644Y-5114644D01*
X10703644Y-5185356D01*
X10774356Y-5185356D01*
X10779356Y-7615356D02*
X10779356Y-7544644D01*
X10708644Y-7544644D01*
X10708644Y-7615356D01*
X10779356Y-7615356D01*
X11028356Y-5185356D02*
X11028356Y-5114644D01*
X10957644Y-5114644D01*
X10957644Y-5185356D01*
X11028356Y-5185356D01*
X11282356Y-5185356D02*
X11282356Y-5114644D01*
X11211644Y-5114644D01*
X11211644Y-5185356D01*
X11282356Y-5185356D01*
X11536356Y-5185356D02*
X11536356Y-5114644D01*
X11465644Y-5114644D01*
X11465644Y-5185356D01*
X11536356Y-5185356D01*
X12025356Y-5397356D02*
X12025356Y-5326644D01*
X11954644Y-5326644D01*
X11954644Y-5397356D01*
X12025356Y-5397356D01*
X12025356Y-5651356D02*
X12025356Y-5580644D01*
X11954644Y-5580644D01*
X11954644Y-5651356D01*
X12025356Y-5651356D01*
X12025356Y-5905356D02*
X12025356Y-5834644D01*
X11954644Y-5834644D01*
X11954644Y-5905356D01*
X12025356Y-5905356D01*
X12025356Y-6159356D02*
X12025356Y-6088644D01*
X11954644Y-6088644D01*
X11954644Y-6159356D01*
X12025356Y-6159356D01*
D11*
X9058705Y-8733555D02*
X9058705Y-8533555D01*
X9058705Y-8533555D02*
X9106324Y-8533555D01*
X9106324Y-8533555D02*
X9134896Y-8543079D01*
X9134896Y-8543079D02*
X9153943Y-8562127D01*
X9153943Y-8562127D02*
X9163467Y-8581174D01*
X9163467Y-8581174D02*
X9172991Y-8619270D01*
X9172991Y-8619270D02*
X9172991Y-8647841D01*
X9172991Y-8647841D02*
X9163467Y-8685936D01*
X9163467Y-8685936D02*
X9153943Y-8704984D01*
X9153943Y-8704984D02*
X9134896Y-8724032D01*
X9134896Y-8724032D02*
X9106324Y-8733555D01*
X9106324Y-8733555D02*
X9058705Y-8733555D01*
X9258705Y-8733555D02*
X9258705Y-8600222D01*
X9258705Y-8638317D02*
X9268229Y-8619270D01*
X9268229Y-8619270D02*
X9277753Y-8609746D01*
X9277753Y-8609746D02*
X9296800Y-8600222D01*
X9296800Y-8600222D02*
X9315848Y-8600222D01*
X9382515Y-8733555D02*
X9382515Y-8600222D01*
X9382515Y-8533555D02*
X9372991Y-8543079D01*
X9372991Y-8543079D02*
X9382515Y-8552603D01*
X9382515Y-8552603D02*
X9392039Y-8543079D01*
X9392039Y-8543079D02*
X9382515Y-8533555D01*
X9382515Y-8533555D02*
X9382515Y-8552603D01*
X9506324Y-8733555D02*
X9487277Y-8724032D01*
X9487277Y-8724032D02*
X9477753Y-8704984D01*
X9477753Y-8704984D02*
X9477753Y-8533555D01*
X9611086Y-8733555D02*
X9592039Y-8724032D01*
X9592039Y-8724032D02*
X9582515Y-8704984D01*
X9582515Y-8704984D02*
X9582515Y-8533555D01*
X9839658Y-8733555D02*
X9839658Y-8533555D01*
X9839658Y-8533555D02*
X9906324Y-8676413D01*
X9906324Y-8676413D02*
X9972991Y-8533555D01*
X9972991Y-8533555D02*
X9972991Y-8733555D01*
X10153943Y-8733555D02*
X10153943Y-8628794D01*
X10153943Y-8628794D02*
X10144420Y-8609746D01*
X10144420Y-8609746D02*
X10125372Y-8600222D01*
X10125372Y-8600222D02*
X10087277Y-8600222D01*
X10087277Y-8600222D02*
X10068229Y-8609746D01*
X10153943Y-8724032D02*
X10134896Y-8733555D01*
X10134896Y-8733555D02*
X10087277Y-8733555D01*
X10087277Y-8733555D02*
X10068229Y-8724032D01*
X10068229Y-8724032D02*
X10058705Y-8704984D01*
X10058705Y-8704984D02*
X10058705Y-8685936D01*
X10058705Y-8685936D02*
X10068229Y-8666889D01*
X10068229Y-8666889D02*
X10087277Y-8657365D01*
X10087277Y-8657365D02*
X10134896Y-8657365D01*
X10134896Y-8657365D02*
X10153943Y-8647841D01*
X10249181Y-8600222D02*
X10249181Y-8800222D01*
X10249181Y-8609746D02*
X10268229Y-8600222D01*
X10268229Y-8600222D02*
X10306324Y-8600222D01*
X10306324Y-8600222D02*
X10325372Y-8609746D01*
X10325372Y-8609746D02*
X10334896Y-8619270D01*
X10334896Y-8619270D02*
X10344420Y-8638317D01*
X10344420Y-8638317D02*
X10344420Y-8695460D01*
X10344420Y-8695460D02*
X10334896Y-8714508D01*
X10334896Y-8714508D02*
X10325372Y-8724032D01*
X10325372Y-8724032D02*
X10306324Y-8733555D01*
X10306324Y-8733555D02*
X10268229Y-8733555D01*
X10268229Y-8733555D02*
X10249181Y-8724032D01*
X10430134Y-8714508D02*
X10439658Y-8724032D01*
X10439658Y-8724032D02*
X10430134Y-8733555D01*
X10430134Y-8733555D02*
X10420610Y-8724032D01*
X10420610Y-8724032D02*
X10430134Y-8714508D01*
X10430134Y-8714508D02*
X10430134Y-8733555D01*
X10430134Y-8609746D02*
X10439658Y-8619270D01*
X10439658Y-8619270D02*
X10430134Y-8628794D01*
X10430134Y-8628794D02*
X10420610Y-8619270D01*
X10420610Y-8619270D02*
X10430134Y-8609746D01*
X10430134Y-8609746D02*
X10430134Y-8628794D01*
D12*
X8767928Y-9047072D02*
X8797928Y-9077072D01*
X8797928Y-9047072D02*
X8767928Y-9077072D01*
D11*
X9096800Y-8953555D02*
X9115848Y-8953555D01*
X9115848Y-8953555D02*
X9134896Y-8963079D01*
X9134896Y-8963079D02*
X9144420Y-8972603D01*
X9144420Y-8972603D02*
X9153943Y-8991651D01*
X9153943Y-8991651D02*
X9163467Y-9029746D01*
X9163467Y-9029746D02*
X9163467Y-9077365D01*
X9163467Y-9077365D02*
X9153943Y-9115460D01*
X9153943Y-9115460D02*
X9144420Y-9134508D01*
X9144420Y-9134508D02*
X9134896Y-9144032D01*
X9134896Y-9144032D02*
X9115848Y-9153555D01*
X9115848Y-9153555D02*
X9096800Y-9153555D01*
X9096800Y-9153555D02*
X9077753Y-9144032D01*
X9077753Y-9144032D02*
X9068229Y-9134508D01*
X9068229Y-9134508D02*
X9058705Y-9115460D01*
X9058705Y-9115460D02*
X9049181Y-9077365D01*
X9049181Y-9077365D02*
X9049181Y-9029746D01*
X9049181Y-9029746D02*
X9058705Y-8991651D01*
X9058705Y-8991651D02*
X9068229Y-8972603D01*
X9068229Y-8972603D02*
X9077753Y-8963079D01*
X9077753Y-8963079D02*
X9096800Y-8953555D01*
X9249181Y-9134508D02*
X9258705Y-9144032D01*
X9258705Y-9144032D02*
X9249181Y-9153555D01*
X9249181Y-9153555D02*
X9239658Y-9144032D01*
X9239658Y-9144032D02*
X9249181Y-9134508D01*
X9249181Y-9134508D02*
X9249181Y-9153555D01*
X9325372Y-8953555D02*
X9449181Y-8953555D01*
X9449181Y-8953555D02*
X9382515Y-9029746D01*
X9382515Y-9029746D02*
X9411086Y-9029746D01*
X9411086Y-9029746D02*
X9430134Y-9039270D01*
X9430134Y-9039270D02*
X9439658Y-9048794D01*
X9439658Y-9048794D02*
X9449181Y-9067841D01*
X9449181Y-9067841D02*
X9449181Y-9115460D01*
X9449181Y-9115460D02*
X9439658Y-9134508D01*
X9439658Y-9134508D02*
X9430134Y-9144032D01*
X9430134Y-9144032D02*
X9411086Y-9153555D01*
X9411086Y-9153555D02*
X9353943Y-9153555D01*
X9353943Y-9153555D02*
X9334896Y-9144032D01*
X9334896Y-9144032D02*
X9325372Y-9134508D01*
X9572991Y-8953555D02*
X9592039Y-8953555D01*
X9592039Y-8953555D02*
X9611086Y-8963079D01*
X9611086Y-8963079D02*
X9620610Y-8972603D01*
X9620610Y-8972603D02*
X9630134Y-8991651D01*
X9630134Y-8991651D02*
X9639658Y-9029746D01*
X9639658Y-9029746D02*
X9639658Y-9077365D01*
X9639658Y-9077365D02*
X9630134Y-9115460D01*
X9630134Y-9115460D02*
X9620610Y-9134508D01*
X9620610Y-9134508D02*
X9611086Y-9144032D01*
X9611086Y-9144032D02*
X9592039Y-9153555D01*
X9592039Y-9153555D02*
X9572991Y-9153555D01*
X9572991Y-9153555D02*
X9553943Y-9144032D01*
X9553943Y-9144032D02*
X9544420Y-9134508D01*
X9544420Y-9134508D02*
X9534896Y-9115460D01*
X9534896Y-9115460D02*
X9525372Y-9077365D01*
X9525372Y-9077365D02*
X9525372Y-9029746D01*
X9525372Y-9029746D02*
X9534896Y-8991651D01*
X9534896Y-8991651D02*
X9544420Y-8972603D01*
X9544420Y-8972603D02*
X9553943Y-8963079D01*
X9553943Y-8963079D02*
X9572991Y-8953555D01*
X9763467Y-8953555D02*
X9782515Y-8953555D01*
X9782515Y-8953555D02*
X9801562Y-8963079D01*
X9801562Y-8963079D02*
X9811086Y-8972603D01*
X9811086Y-8972603D02*
X9820610Y-8991651D01*
X9820610Y-8991651D02*
X9830134Y-9029746D01*
X9830134Y-9029746D02*
X9830134Y-9077365D01*
X9830134Y-9077365D02*
X9820610Y-9115460D01*
X9820610Y-9115460D02*
X9811086Y-9134508D01*
X9811086Y-9134508D02*
X9801562Y-9144032D01*
X9801562Y-9144032D02*
X9782515Y-9153555D01*
X9782515Y-9153555D02*
X9763467Y-9153555D01*
X9763467Y-9153555D02*
X9744420Y-9144032D01*
X9744420Y-9144032D02*
X9734896Y-9134508D01*
X9734896Y-9134508D02*
X9725372Y-9115460D01*
X9725372Y-9115460D02*
X9715848Y-9077365D01*
X9715848Y-9077365D02*
X9715848Y-9029746D01*
X9715848Y-9029746D02*
X9725372Y-8991651D01*
X9725372Y-8991651D02*
X9734896Y-8972603D01*
X9734896Y-8972603D02*
X9744420Y-8963079D01*
X9744420Y-8963079D02*
X9763467Y-8953555D01*
X9915848Y-9153555D02*
X9915848Y-9020222D01*
X9915848Y-9039270D02*
X9925372Y-9029746D01*
X9925372Y-9029746D02*
X9944420Y-9020222D01*
X9944420Y-9020222D02*
X9972991Y-9020222D01*
X9972991Y-9020222D02*
X9992039Y-9029746D01*
X9992039Y-9029746D02*
X10001562Y-9048794D01*
X10001562Y-9048794D02*
X10001562Y-9153555D01*
X10001562Y-9048794D02*
X10011086Y-9029746D01*
X10011086Y-9029746D02*
X10030134Y-9020222D01*
X10030134Y-9020222D02*
X10058705Y-9020222D01*
X10058705Y-9020222D02*
X10077753Y-9029746D01*
X10077753Y-9029746D02*
X10087277Y-9048794D01*
X10087277Y-9048794D02*
X10087277Y-9153555D01*
X10182515Y-9153555D02*
X10182515Y-9020222D01*
X10182515Y-9039270D02*
X10192039Y-9029746D01*
X10192039Y-9029746D02*
X10211086Y-9020222D01*
X10211086Y-9020222D02*
X10239658Y-9020222D01*
X10239658Y-9020222D02*
X10258705Y-9029746D01*
X10258705Y-9029746D02*
X10268229Y-9048794D01*
X10268229Y-9048794D02*
X10268229Y-9153555D01*
X10268229Y-9048794D02*
X10277753Y-9029746D01*
X10277753Y-9029746D02*
X10296801Y-9020222D01*
X10296801Y-9020222D02*
X10325372Y-9020222D01*
X10325372Y-9020222D02*
X10344420Y-9029746D01*
X10344420Y-9029746D02*
X10353943Y-9048794D01*
X10353943Y-9048794D02*
X10353943Y-9153555D01*
X10744420Y-8944032D02*
X10572991Y-9201174D01*
X11001563Y-8953555D02*
X11020610Y-8953555D01*
X11020610Y-8953555D02*
X11039658Y-8963079D01*
X11039658Y-8963079D02*
X11049182Y-8972603D01*
X11049182Y-8972603D02*
X11058705Y-8991651D01*
X11058705Y-8991651D02*
X11068229Y-9029746D01*
X11068229Y-9029746D02*
X11068229Y-9077365D01*
X11068229Y-9077365D02*
X11058705Y-9115460D01*
X11058705Y-9115460D02*
X11049182Y-9134508D01*
X11049182Y-9134508D02*
X11039658Y-9144032D01*
X11039658Y-9144032D02*
X11020610Y-9153555D01*
X11020610Y-9153555D02*
X11001563Y-9153555D01*
X11001563Y-9153555D02*
X10982515Y-9144032D01*
X10982515Y-9144032D02*
X10972991Y-9134508D01*
X10972991Y-9134508D02*
X10963467Y-9115460D01*
X10963467Y-9115460D02*
X10953944Y-9077365D01*
X10953944Y-9077365D02*
X10953944Y-9029746D01*
X10953944Y-9029746D02*
X10963467Y-8991651D01*
X10963467Y-8991651D02*
X10972991Y-8972603D01*
X10972991Y-8972603D02*
X10982515Y-8963079D01*
X10982515Y-8963079D02*
X11001563Y-8953555D01*
X11153944Y-9134508D02*
X11163467Y-9144032D01*
X11163467Y-9144032D02*
X11153944Y-9153555D01*
X11153944Y-9153555D02*
X11144420Y-9144032D01*
X11144420Y-9144032D02*
X11153944Y-9134508D01*
X11153944Y-9134508D02*
X11153944Y-9153555D01*
X11287277Y-8953555D02*
X11306324Y-8953555D01*
X11306324Y-8953555D02*
X11325372Y-8963079D01*
X11325372Y-8963079D02*
X11334896Y-8972603D01*
X11334896Y-8972603D02*
X11344420Y-8991651D01*
X11344420Y-8991651D02*
X11353943Y-9029746D01*
X11353943Y-9029746D02*
X11353943Y-9077365D01*
X11353943Y-9077365D02*
X11344420Y-9115460D01*
X11344420Y-9115460D02*
X11334896Y-9134508D01*
X11334896Y-9134508D02*
X11325372Y-9144032D01*
X11325372Y-9144032D02*
X11306324Y-9153555D01*
X11306324Y-9153555D02*
X11287277Y-9153555D01*
X11287277Y-9153555D02*
X11268229Y-9144032D01*
X11268229Y-9144032D02*
X11258705Y-9134508D01*
X11258705Y-9134508D02*
X11249182Y-9115460D01*
X11249182Y-9115460D02*
X11239658Y-9077365D01*
X11239658Y-9077365D02*
X11239658Y-9029746D01*
X11239658Y-9029746D02*
X11249182Y-8991651D01*
X11249182Y-8991651D02*
X11258705Y-8972603D01*
X11258705Y-8972603D02*
X11268229Y-8963079D01*
X11268229Y-8963079D02*
X11287277Y-8953555D01*
X11544420Y-9153555D02*
X11430134Y-9153555D01*
X11487277Y-9153555D02*
X11487277Y-8953555D01*
X11487277Y-8953555D02*
X11468229Y-8982127D01*
X11468229Y-8982127D02*
X11449182Y-9001174D01*
X11449182Y-9001174D02*
X11430134Y-9010698D01*
X11734896Y-9153555D02*
X11620610Y-9153555D01*
X11677753Y-9153555D02*
X11677753Y-8953555D01*
X11677753Y-8953555D02*
X11658705Y-8982127D01*
X11658705Y-8982127D02*
X11639658Y-9001174D01*
X11639658Y-9001174D02*
X11620610Y-9010698D01*
X11849182Y-9039270D02*
X11830134Y-9029746D01*
X11830134Y-9029746D02*
X11820610Y-9020222D01*
X11820610Y-9020222D02*
X11811086Y-9001174D01*
X11811086Y-9001174D02*
X11811086Y-8991651D01*
X11811086Y-8991651D02*
X11820610Y-8972603D01*
X11820610Y-8972603D02*
X11830134Y-8963079D01*
X11830134Y-8963079D02*
X11849182Y-8953555D01*
X11849182Y-8953555D02*
X11887277Y-8953555D01*
X11887277Y-8953555D02*
X11906324Y-8963079D01*
X11906324Y-8963079D02*
X11915848Y-8972603D01*
X11915848Y-8972603D02*
X11925372Y-8991651D01*
X11925372Y-8991651D02*
X11925372Y-9001174D01*
X11925372Y-9001174D02*
X11915848Y-9020222D01*
X11915848Y-9020222D02*
X11906324Y-9029746D01*
X11906324Y-9029746D02*
X11887277Y-9039270D01*
X11887277Y-9039270D02*
X11849182Y-9039270D01*
X11849182Y-9039270D02*
X11830134Y-9048794D01*
X11830134Y-9048794D02*
X11820610Y-9058317D01*
X11820610Y-9058317D02*
X11811086Y-9077365D01*
X11811086Y-9077365D02*
X11811086Y-9115460D01*
X11811086Y-9115460D02*
X11820610Y-9134508D01*
X11820610Y-9134508D02*
X11830134Y-9144032D01*
X11830134Y-9144032D02*
X11849182Y-9153555D01*
X11849182Y-9153555D02*
X11887277Y-9153555D01*
X11887277Y-9153555D02*
X11906324Y-9144032D01*
X11906324Y-9144032D02*
X11915848Y-9134508D01*
X11915848Y-9134508D02*
X11925372Y-9115460D01*
X11925372Y-9115460D02*
X11925372Y-9077365D01*
X11925372Y-9077365D02*
X11915848Y-9058317D01*
X11915848Y-9058317D02*
X11906324Y-9048794D01*
X11906324Y-9048794D02*
X11887277Y-9039270D01*
X12001563Y-8953555D02*
X12001563Y-8991651D01*
X12077753Y-8953555D02*
X12077753Y-8991651D01*
X12372991Y-9229746D02*
X12363467Y-9220222D01*
X12363467Y-9220222D02*
X12344420Y-9191651D01*
X12344420Y-9191651D02*
X12334896Y-9172603D01*
X12334896Y-9172603D02*
X12325372Y-9144032D01*
X12325372Y-9144032D02*
X12315848Y-9096413D01*
X12315848Y-9096413D02*
X12315848Y-9058317D01*
X12315848Y-9058317D02*
X12325372Y-9010698D01*
X12325372Y-9010698D02*
X12334896Y-8982127D01*
X12334896Y-8982127D02*
X12344420Y-8963079D01*
X12344420Y-8963079D02*
X12363467Y-8934508D01*
X12363467Y-8934508D02*
X12372991Y-8924984D01*
X12439658Y-8972603D02*
X12449182Y-8963079D01*
X12449182Y-8963079D02*
X12468229Y-8953555D01*
X12468229Y-8953555D02*
X12515848Y-8953555D01*
X12515848Y-8953555D02*
X12534896Y-8963079D01*
X12534896Y-8963079D02*
X12544420Y-8972603D01*
X12544420Y-8972603D02*
X12553944Y-8991651D01*
X12553944Y-8991651D02*
X12553944Y-9010698D01*
X12553944Y-9010698D02*
X12544420Y-9039270D01*
X12544420Y-9039270D02*
X12430134Y-9153555D01*
X12430134Y-9153555D02*
X12553944Y-9153555D01*
X12630134Y-8972603D02*
X12639658Y-8963079D01*
X12639658Y-8963079D02*
X12658705Y-8953555D01*
X12658705Y-8953555D02*
X12706325Y-8953555D01*
X12706325Y-8953555D02*
X12725372Y-8963079D01*
X12725372Y-8963079D02*
X12734896Y-8972603D01*
X12734896Y-8972603D02*
X12744420Y-8991651D01*
X12744420Y-8991651D02*
X12744420Y-9010698D01*
X12744420Y-9010698D02*
X12734896Y-9039270D01*
X12734896Y-9039270D02*
X12620610Y-9153555D01*
X12620610Y-9153555D02*
X12744420Y-9153555D01*
X12982515Y-9153555D02*
X12982515Y-8953555D01*
X13068229Y-9153555D02*
X13068229Y-9048794D01*
X13068229Y-9048794D02*
X13058706Y-9029746D01*
X13058706Y-9029746D02*
X13039658Y-9020222D01*
X13039658Y-9020222D02*
X13011086Y-9020222D01*
X13011086Y-9020222D02*
X12992039Y-9029746D01*
X12992039Y-9029746D02*
X12982515Y-9039270D01*
X13192039Y-9153555D02*
X13172991Y-9144032D01*
X13172991Y-9144032D02*
X13163467Y-9134508D01*
X13163467Y-9134508D02*
X13153944Y-9115460D01*
X13153944Y-9115460D02*
X13153944Y-9058317D01*
X13153944Y-9058317D02*
X13163467Y-9039270D01*
X13163467Y-9039270D02*
X13172991Y-9029746D01*
X13172991Y-9029746D02*
X13192039Y-9020222D01*
X13192039Y-9020222D02*
X13220610Y-9020222D01*
X13220610Y-9020222D02*
X13239658Y-9029746D01*
X13239658Y-9029746D02*
X13249182Y-9039270D01*
X13249182Y-9039270D02*
X13258706Y-9058317D01*
X13258706Y-9058317D02*
X13258706Y-9115460D01*
X13258706Y-9115460D02*
X13249182Y-9134508D01*
X13249182Y-9134508D02*
X13239658Y-9144032D01*
X13239658Y-9144032D02*
X13220610Y-9153555D01*
X13220610Y-9153555D02*
X13192039Y-9153555D01*
X13372991Y-9153555D02*
X13353944Y-9144032D01*
X13353944Y-9144032D02*
X13344420Y-9124984D01*
X13344420Y-9124984D02*
X13344420Y-8953555D01*
X13525372Y-9144032D02*
X13506325Y-9153555D01*
X13506325Y-9153555D02*
X13468229Y-9153555D01*
X13468229Y-9153555D02*
X13449182Y-9144032D01*
X13449182Y-9144032D02*
X13439658Y-9124984D01*
X13439658Y-9124984D02*
X13439658Y-9048794D01*
X13439658Y-9048794D02*
X13449182Y-9029746D01*
X13449182Y-9029746D02*
X13468229Y-9020222D01*
X13468229Y-9020222D02*
X13506325Y-9020222D01*
X13506325Y-9020222D02*
X13525372Y-9029746D01*
X13525372Y-9029746D02*
X13534896Y-9048794D01*
X13534896Y-9048794D02*
X13534896Y-9067841D01*
X13534896Y-9067841D02*
X13439658Y-9086889D01*
X13611087Y-9144032D02*
X13630134Y-9153555D01*
X13630134Y-9153555D02*
X13668229Y-9153555D01*
X13668229Y-9153555D02*
X13687277Y-9144032D01*
X13687277Y-9144032D02*
X13696801Y-9124984D01*
X13696801Y-9124984D02*
X13696801Y-9115460D01*
X13696801Y-9115460D02*
X13687277Y-9096413D01*
X13687277Y-9096413D02*
X13668229Y-9086889D01*
X13668229Y-9086889D02*
X13639658Y-9086889D01*
X13639658Y-9086889D02*
X13620610Y-9077365D01*
X13620610Y-9077365D02*
X13611087Y-9058317D01*
X13611087Y-9058317D02*
X13611087Y-9048794D01*
X13611087Y-9048794D02*
X13620610Y-9029746D01*
X13620610Y-9029746D02*
X13639658Y-9020222D01*
X13639658Y-9020222D02*
X13668229Y-9020222D01*
X13668229Y-9020222D02*
X13687277Y-9029746D01*
X13763468Y-9229746D02*
X13772991Y-9220222D01*
X13772991Y-9220222D02*
X13792039Y-9191651D01*
X13792039Y-9191651D02*
X13801563Y-9172603D01*
X13801563Y-9172603D02*
X13811087Y-9144032D01*
X13811087Y-9144032D02*
X13820610Y-9096413D01*
X13820610Y-9096413D02*
X13820610Y-9058317D01*
X13820610Y-9058317D02*
X13811087Y-9010698D01*
X13811087Y-9010698D02*
X13801563Y-8982127D01*
X13801563Y-8982127D02*
X13792039Y-8963079D01*
X13792039Y-8963079D02*
X13772991Y-8934508D01*
X13772991Y-8934508D02*
X13763468Y-8924984D01*
D12*
X8797928Y-9326072D02*
G75*
G02*
X8742928Y-9326072I-27500J0D01*
G01*
X8742928Y-9326072D02*
G75*
G02*
X8797928Y-9326072I27500J0D01*
G01*
D11*
X9096800Y-9217555D02*
X9115848Y-9217555D01*
X9115848Y-9217555D02*
X9134896Y-9227079D01*
X9134896Y-9227079D02*
X9144420Y-9236603D01*
X9144420Y-9236603D02*
X9153943Y-9255651D01*
X9153943Y-9255651D02*
X9163467Y-9293746D01*
X9163467Y-9293746D02*
X9163467Y-9341365D01*
X9163467Y-9341365D02*
X9153943Y-9379460D01*
X9153943Y-9379460D02*
X9144420Y-9398508D01*
X9144420Y-9398508D02*
X9134896Y-9408032D01*
X9134896Y-9408032D02*
X9115848Y-9417555D01*
X9115848Y-9417555D02*
X9096800Y-9417555D01*
X9096800Y-9417555D02*
X9077753Y-9408032D01*
X9077753Y-9408032D02*
X9068229Y-9398508D01*
X9068229Y-9398508D02*
X9058705Y-9379460D01*
X9058705Y-9379460D02*
X9049181Y-9341365D01*
X9049181Y-9341365D02*
X9049181Y-9293746D01*
X9049181Y-9293746D02*
X9058705Y-9255651D01*
X9058705Y-9255651D02*
X9068229Y-9236603D01*
X9068229Y-9236603D02*
X9077753Y-9227079D01*
X9077753Y-9227079D02*
X9096800Y-9217555D01*
X9249181Y-9398508D02*
X9258705Y-9408032D01*
X9258705Y-9408032D02*
X9249181Y-9417555D01*
X9249181Y-9417555D02*
X9239658Y-9408032D01*
X9239658Y-9408032D02*
X9249181Y-9398508D01*
X9249181Y-9398508D02*
X9249181Y-9417555D01*
X9439658Y-9217555D02*
X9344420Y-9217555D01*
X9344420Y-9217555D02*
X9334896Y-9312794D01*
X9334896Y-9312794D02*
X9344420Y-9303270D01*
X9344420Y-9303270D02*
X9363467Y-9293746D01*
X9363467Y-9293746D02*
X9411086Y-9293746D01*
X9411086Y-9293746D02*
X9430134Y-9303270D01*
X9430134Y-9303270D02*
X9439658Y-9312794D01*
X9439658Y-9312794D02*
X9449181Y-9331841D01*
X9449181Y-9331841D02*
X9449181Y-9379460D01*
X9449181Y-9379460D02*
X9439658Y-9398508D01*
X9439658Y-9398508D02*
X9430134Y-9408032D01*
X9430134Y-9408032D02*
X9411086Y-9417555D01*
X9411086Y-9417555D02*
X9363467Y-9417555D01*
X9363467Y-9417555D02*
X9344420Y-9408032D01*
X9344420Y-9408032D02*
X9334896Y-9398508D01*
X9630134Y-9217555D02*
X9534896Y-9217555D01*
X9534896Y-9217555D02*
X9525372Y-9312794D01*
X9525372Y-9312794D02*
X9534896Y-9303270D01*
X9534896Y-9303270D02*
X9553943Y-9293746D01*
X9553943Y-9293746D02*
X9601562Y-9293746D01*
X9601562Y-9293746D02*
X9620610Y-9303270D01*
X9620610Y-9303270D02*
X9630134Y-9312794D01*
X9630134Y-9312794D02*
X9639658Y-9331841D01*
X9639658Y-9331841D02*
X9639658Y-9379460D01*
X9639658Y-9379460D02*
X9630134Y-9398508D01*
X9630134Y-9398508D02*
X9620610Y-9408032D01*
X9620610Y-9408032D02*
X9601562Y-9417555D01*
X9601562Y-9417555D02*
X9553943Y-9417555D01*
X9553943Y-9417555D02*
X9534896Y-9408032D01*
X9534896Y-9408032D02*
X9525372Y-9398508D01*
X9763467Y-9217555D02*
X9782515Y-9217555D01*
X9782515Y-9217555D02*
X9801562Y-9227079D01*
X9801562Y-9227079D02*
X9811086Y-9236603D01*
X9811086Y-9236603D02*
X9820610Y-9255651D01*
X9820610Y-9255651D02*
X9830134Y-9293746D01*
X9830134Y-9293746D02*
X9830134Y-9341365D01*
X9830134Y-9341365D02*
X9820610Y-9379460D01*
X9820610Y-9379460D02*
X9811086Y-9398508D01*
X9811086Y-9398508D02*
X9801562Y-9408032D01*
X9801562Y-9408032D02*
X9782515Y-9417555D01*
X9782515Y-9417555D02*
X9763467Y-9417555D01*
X9763467Y-9417555D02*
X9744420Y-9408032D01*
X9744420Y-9408032D02*
X9734896Y-9398508D01*
X9734896Y-9398508D02*
X9725372Y-9379460D01*
X9725372Y-9379460D02*
X9715848Y-9341365D01*
X9715848Y-9341365D02*
X9715848Y-9293746D01*
X9715848Y-9293746D02*
X9725372Y-9255651D01*
X9725372Y-9255651D02*
X9734896Y-9236603D01*
X9734896Y-9236603D02*
X9744420Y-9227079D01*
X9744420Y-9227079D02*
X9763467Y-9217555D01*
X9915848Y-9417555D02*
X9915848Y-9284222D01*
X9915848Y-9303270D02*
X9925372Y-9293746D01*
X9925372Y-9293746D02*
X9944420Y-9284222D01*
X9944420Y-9284222D02*
X9972991Y-9284222D01*
X9972991Y-9284222D02*
X9992039Y-9293746D01*
X9992039Y-9293746D02*
X10001562Y-9312794D01*
X10001562Y-9312794D02*
X10001562Y-9417555D01*
X10001562Y-9312794D02*
X10011086Y-9293746D01*
X10011086Y-9293746D02*
X10030134Y-9284222D01*
X10030134Y-9284222D02*
X10058705Y-9284222D01*
X10058705Y-9284222D02*
X10077753Y-9293746D01*
X10077753Y-9293746D02*
X10087277Y-9312794D01*
X10087277Y-9312794D02*
X10087277Y-9417555D01*
X10182515Y-9417555D02*
X10182515Y-9284222D01*
X10182515Y-9303270D02*
X10192039Y-9293746D01*
X10192039Y-9293746D02*
X10211086Y-9284222D01*
X10211086Y-9284222D02*
X10239658Y-9284222D01*
X10239658Y-9284222D02*
X10258705Y-9293746D01*
X10258705Y-9293746D02*
X10268229Y-9312794D01*
X10268229Y-9312794D02*
X10268229Y-9417555D01*
X10268229Y-9312794D02*
X10277753Y-9293746D01*
X10277753Y-9293746D02*
X10296801Y-9284222D01*
X10296801Y-9284222D02*
X10325372Y-9284222D01*
X10325372Y-9284222D02*
X10344420Y-9293746D01*
X10344420Y-9293746D02*
X10353943Y-9312794D01*
X10353943Y-9312794D02*
X10353943Y-9417555D01*
X10744420Y-9208032D02*
X10572991Y-9465174D01*
X11001563Y-9217555D02*
X11020610Y-9217555D01*
X11020610Y-9217555D02*
X11039658Y-9227079D01*
X11039658Y-9227079D02*
X11049182Y-9236603D01*
X11049182Y-9236603D02*
X11058705Y-9255651D01*
X11058705Y-9255651D02*
X11068229Y-9293746D01*
X11068229Y-9293746D02*
X11068229Y-9341365D01*
X11068229Y-9341365D02*
X11058705Y-9379460D01*
X11058705Y-9379460D02*
X11049182Y-9398508D01*
X11049182Y-9398508D02*
X11039658Y-9408032D01*
X11039658Y-9408032D02*
X11020610Y-9417555D01*
X11020610Y-9417555D02*
X11001563Y-9417555D01*
X11001563Y-9417555D02*
X10982515Y-9408032D01*
X10982515Y-9408032D02*
X10972991Y-9398508D01*
X10972991Y-9398508D02*
X10963467Y-9379460D01*
X10963467Y-9379460D02*
X10953944Y-9341365D01*
X10953944Y-9341365D02*
X10953944Y-9293746D01*
X10953944Y-9293746D02*
X10963467Y-9255651D01*
X10963467Y-9255651D02*
X10972991Y-9236603D01*
X10972991Y-9236603D02*
X10982515Y-9227079D01*
X10982515Y-9227079D02*
X11001563Y-9217555D01*
X11153944Y-9398508D02*
X11163467Y-9408032D01*
X11163467Y-9408032D02*
X11153944Y-9417555D01*
X11153944Y-9417555D02*
X11144420Y-9408032D01*
X11144420Y-9408032D02*
X11153944Y-9398508D01*
X11153944Y-9398508D02*
X11153944Y-9417555D01*
X11287277Y-9217555D02*
X11306324Y-9217555D01*
X11306324Y-9217555D02*
X11325372Y-9227079D01*
X11325372Y-9227079D02*
X11334896Y-9236603D01*
X11334896Y-9236603D02*
X11344420Y-9255651D01*
X11344420Y-9255651D02*
X11353943Y-9293746D01*
X11353943Y-9293746D02*
X11353943Y-9341365D01*
X11353943Y-9341365D02*
X11344420Y-9379460D01*
X11344420Y-9379460D02*
X11334896Y-9398508D01*
X11334896Y-9398508D02*
X11325372Y-9408032D01*
X11325372Y-9408032D02*
X11306324Y-9417555D01*
X11306324Y-9417555D02*
X11287277Y-9417555D01*
X11287277Y-9417555D02*
X11268229Y-9408032D01*
X11268229Y-9408032D02*
X11258705Y-9398508D01*
X11258705Y-9398508D02*
X11249182Y-9379460D01*
X11249182Y-9379460D02*
X11239658Y-9341365D01*
X11239658Y-9341365D02*
X11239658Y-9293746D01*
X11239658Y-9293746D02*
X11249182Y-9255651D01*
X11249182Y-9255651D02*
X11258705Y-9236603D01*
X11258705Y-9236603D02*
X11268229Y-9227079D01*
X11268229Y-9227079D02*
X11287277Y-9217555D01*
X11430134Y-9236603D02*
X11439658Y-9227079D01*
X11439658Y-9227079D02*
X11458705Y-9217555D01*
X11458705Y-9217555D02*
X11506324Y-9217555D01*
X11506324Y-9217555D02*
X11525372Y-9227079D01*
X11525372Y-9227079D02*
X11534896Y-9236603D01*
X11534896Y-9236603D02*
X11544420Y-9255651D01*
X11544420Y-9255651D02*
X11544420Y-9274698D01*
X11544420Y-9274698D02*
X11534896Y-9303270D01*
X11534896Y-9303270D02*
X11420610Y-9417555D01*
X11420610Y-9417555D02*
X11544420Y-9417555D01*
X11734896Y-9417555D02*
X11620610Y-9417555D01*
X11677753Y-9417555D02*
X11677753Y-9217555D01*
X11677753Y-9217555D02*
X11658705Y-9246127D01*
X11658705Y-9246127D02*
X11639658Y-9265174D01*
X11639658Y-9265174D02*
X11620610Y-9274698D01*
X11801563Y-9217555D02*
X11934896Y-9217555D01*
X11934896Y-9217555D02*
X11849182Y-9417555D01*
X12001563Y-9217555D02*
X12001563Y-9255651D01*
X12077753Y-9217555D02*
X12077753Y-9255651D01*
X12372991Y-9493746D02*
X12363467Y-9484222D01*
X12363467Y-9484222D02*
X12344420Y-9455651D01*
X12344420Y-9455651D02*
X12334896Y-9436603D01*
X12334896Y-9436603D02*
X12325372Y-9408032D01*
X12325372Y-9408032D02*
X12315848Y-9360413D01*
X12315848Y-9360413D02*
X12315848Y-9322317D01*
X12315848Y-9322317D02*
X12325372Y-9274698D01*
X12325372Y-9274698D02*
X12334896Y-9246127D01*
X12334896Y-9246127D02*
X12344420Y-9227079D01*
X12344420Y-9227079D02*
X12363467Y-9198508D01*
X12363467Y-9198508D02*
X12372991Y-9188984D01*
X12487277Y-9217555D02*
X12506325Y-9217555D01*
X12506325Y-9217555D02*
X12525372Y-9227079D01*
X12525372Y-9227079D02*
X12534896Y-9236603D01*
X12534896Y-9236603D02*
X12544420Y-9255651D01*
X12544420Y-9255651D02*
X12553944Y-9293746D01*
X12553944Y-9293746D02*
X12553944Y-9341365D01*
X12553944Y-9341365D02*
X12544420Y-9379460D01*
X12544420Y-9379460D02*
X12534896Y-9398508D01*
X12534896Y-9398508D02*
X12525372Y-9408032D01*
X12525372Y-9408032D02*
X12506325Y-9417555D01*
X12506325Y-9417555D02*
X12487277Y-9417555D01*
X12487277Y-9417555D02*
X12468229Y-9408032D01*
X12468229Y-9408032D02*
X12458705Y-9398508D01*
X12458705Y-9398508D02*
X12449182Y-9379460D01*
X12449182Y-9379460D02*
X12439658Y-9341365D01*
X12439658Y-9341365D02*
X12439658Y-9293746D01*
X12439658Y-9293746D02*
X12449182Y-9255651D01*
X12449182Y-9255651D02*
X12458705Y-9236603D01*
X12458705Y-9236603D02*
X12468229Y-9227079D01*
X12468229Y-9227079D02*
X12487277Y-9217555D01*
X12792039Y-9417555D02*
X12792039Y-9217555D01*
X12877753Y-9417555D02*
X12877753Y-9312794D01*
X12877753Y-9312794D02*
X12868229Y-9293746D01*
X12868229Y-9293746D02*
X12849182Y-9284222D01*
X12849182Y-9284222D02*
X12820610Y-9284222D01*
X12820610Y-9284222D02*
X12801563Y-9293746D01*
X12801563Y-9293746D02*
X12792039Y-9303270D01*
X13001563Y-9417555D02*
X12982515Y-9408032D01*
X12982515Y-9408032D02*
X12972991Y-9398508D01*
X12972991Y-9398508D02*
X12963467Y-9379460D01*
X12963467Y-9379460D02*
X12963467Y-9322317D01*
X12963467Y-9322317D02*
X12972991Y-9303270D01*
X12972991Y-9303270D02*
X12982515Y-9293746D01*
X12982515Y-9293746D02*
X13001563Y-9284222D01*
X13001563Y-9284222D02*
X13030134Y-9284222D01*
X13030134Y-9284222D02*
X13049182Y-9293746D01*
X13049182Y-9293746D02*
X13058706Y-9303270D01*
X13058706Y-9303270D02*
X13068229Y-9322317D01*
X13068229Y-9322317D02*
X13068229Y-9379460D01*
X13068229Y-9379460D02*
X13058706Y-9398508D01*
X13058706Y-9398508D02*
X13049182Y-9408032D01*
X13049182Y-9408032D02*
X13030134Y-9417555D01*
X13030134Y-9417555D02*
X13001563Y-9417555D01*
X13182515Y-9417555D02*
X13163467Y-9408032D01*
X13163467Y-9408032D02*
X13153944Y-9388984D01*
X13153944Y-9388984D02*
X13153944Y-9217555D01*
X13334896Y-9408032D02*
X13315848Y-9417555D01*
X13315848Y-9417555D02*
X13277753Y-9417555D01*
X13277753Y-9417555D02*
X13258706Y-9408032D01*
X13258706Y-9408032D02*
X13249182Y-9388984D01*
X13249182Y-9388984D02*
X13249182Y-9312794D01*
X13249182Y-9312794D02*
X13258706Y-9293746D01*
X13258706Y-9293746D02*
X13277753Y-9284222D01*
X13277753Y-9284222D02*
X13315848Y-9284222D01*
X13315848Y-9284222D02*
X13334896Y-9293746D01*
X13334896Y-9293746D02*
X13344420Y-9312794D01*
X13344420Y-9312794D02*
X13344420Y-9331841D01*
X13344420Y-9331841D02*
X13249182Y-9350889D01*
X13420610Y-9408032D02*
X13439658Y-9417555D01*
X13439658Y-9417555D02*
X13477753Y-9417555D01*
X13477753Y-9417555D02*
X13496801Y-9408032D01*
X13496801Y-9408032D02*
X13506325Y-9388984D01*
X13506325Y-9388984D02*
X13506325Y-9379460D01*
X13506325Y-9379460D02*
X13496801Y-9360413D01*
X13496801Y-9360413D02*
X13477753Y-9350889D01*
X13477753Y-9350889D02*
X13449182Y-9350889D01*
X13449182Y-9350889D02*
X13430134Y-9341365D01*
X13430134Y-9341365D02*
X13420610Y-9322317D01*
X13420610Y-9322317D02*
X13420610Y-9312794D01*
X13420610Y-9312794D02*
X13430134Y-9293746D01*
X13430134Y-9293746D02*
X13449182Y-9284222D01*
X13449182Y-9284222D02*
X13477753Y-9284222D01*
X13477753Y-9284222D02*
X13496801Y-9293746D01*
X13744420Y-9341365D02*
X13896801Y-9341365D01*
X13820610Y-9417555D02*
X13820610Y-9265174D01*
X14134896Y-9236603D02*
X14144420Y-9227079D01*
X14144420Y-9227079D02*
X14163468Y-9217555D01*
X14163468Y-9217555D02*
X14211087Y-9217555D01*
X14211087Y-9217555D02*
X14230134Y-9227079D01*
X14230134Y-9227079D02*
X14239658Y-9236603D01*
X14239658Y-9236603D02*
X14249182Y-9255651D01*
X14249182Y-9255651D02*
X14249182Y-9274698D01*
X14249182Y-9274698D02*
X14239658Y-9303270D01*
X14239658Y-9303270D02*
X14125372Y-9417555D01*
X14125372Y-9417555D02*
X14249182Y-9417555D01*
X14477753Y-9408032D02*
X14496801Y-9417555D01*
X14496801Y-9417555D02*
X14534896Y-9417555D01*
X14534896Y-9417555D02*
X14553944Y-9408032D01*
X14553944Y-9408032D02*
X14563468Y-9388984D01*
X14563468Y-9388984D02*
X14563468Y-9379460D01*
X14563468Y-9379460D02*
X14553944Y-9360413D01*
X14553944Y-9360413D02*
X14534896Y-9350889D01*
X14534896Y-9350889D02*
X14506325Y-9350889D01*
X14506325Y-9350889D02*
X14487277Y-9341365D01*
X14487277Y-9341365D02*
X14477753Y-9322317D01*
X14477753Y-9322317D02*
X14477753Y-9312794D01*
X14477753Y-9312794D02*
X14487277Y-9293746D01*
X14487277Y-9293746D02*
X14506325Y-9284222D01*
X14506325Y-9284222D02*
X14534896Y-9284222D01*
X14534896Y-9284222D02*
X14553944Y-9293746D01*
X14677753Y-9417555D02*
X14658706Y-9408032D01*
X14658706Y-9408032D02*
X14649182Y-9388984D01*
X14649182Y-9388984D02*
X14649182Y-9217555D01*
X14782515Y-9417555D02*
X14763468Y-9408032D01*
X14763468Y-9408032D02*
X14753944Y-9398508D01*
X14753944Y-9398508D02*
X14744420Y-9379460D01*
X14744420Y-9379460D02*
X14744420Y-9322317D01*
X14744420Y-9322317D02*
X14753944Y-9303270D01*
X14753944Y-9303270D02*
X14763468Y-9293746D01*
X14763468Y-9293746D02*
X14782515Y-9284222D01*
X14782515Y-9284222D02*
X14811087Y-9284222D01*
X14811087Y-9284222D02*
X14830134Y-9293746D01*
X14830134Y-9293746D02*
X14839658Y-9303270D01*
X14839658Y-9303270D02*
X14849182Y-9322317D01*
X14849182Y-9322317D02*
X14849182Y-9379460D01*
X14849182Y-9379460D02*
X14839658Y-9398508D01*
X14839658Y-9398508D02*
X14830134Y-9408032D01*
X14830134Y-9408032D02*
X14811087Y-9417555D01*
X14811087Y-9417555D02*
X14782515Y-9417555D01*
X14906325Y-9284222D02*
X14982515Y-9284222D01*
X14934896Y-9217555D02*
X14934896Y-9388984D01*
X14934896Y-9388984D02*
X14944420Y-9408032D01*
X14944420Y-9408032D02*
X14963468Y-9417555D01*
X14963468Y-9417555D02*
X14982515Y-9417555D01*
X15039658Y-9408032D02*
X15058706Y-9417555D01*
X15058706Y-9417555D02*
X15096801Y-9417555D01*
X15096801Y-9417555D02*
X15115849Y-9408032D01*
X15115849Y-9408032D02*
X15125372Y-9388984D01*
X15125372Y-9388984D02*
X15125372Y-9379460D01*
X15125372Y-9379460D02*
X15115849Y-9360413D01*
X15115849Y-9360413D02*
X15096801Y-9350889D01*
X15096801Y-9350889D02*
X15068230Y-9350889D01*
X15068230Y-9350889D02*
X15049182Y-9341365D01*
X15049182Y-9341365D02*
X15039658Y-9322317D01*
X15039658Y-9322317D02*
X15039658Y-9312794D01*
X15039658Y-9312794D02*
X15049182Y-9293746D01*
X15049182Y-9293746D02*
X15068230Y-9284222D01*
X15068230Y-9284222D02*
X15096801Y-9284222D01*
X15096801Y-9284222D02*
X15115849Y-9293746D01*
X15192039Y-9493746D02*
X15201563Y-9484222D01*
X15201563Y-9484222D02*
X15220611Y-9455651D01*
X15220611Y-9455651D02*
X15230134Y-9436603D01*
X15230134Y-9436603D02*
X15239658Y-9408032D01*
X15239658Y-9408032D02*
X15249182Y-9360413D01*
X15249182Y-9360413D02*
X15249182Y-9322317D01*
X15249182Y-9322317D02*
X15239658Y-9274698D01*
X15239658Y-9274698D02*
X15230134Y-9246127D01*
X15230134Y-9246127D02*
X15220611Y-9227079D01*
X15220611Y-9227079D02*
X15201563Y-9198508D01*
X15201563Y-9198508D02*
X15192039Y-9188984D01*
D12*
X8755428Y-9547572D02*
X8755428Y-9632572D01*
X8712928Y-9590072D02*
X8797928Y-9590072D01*
D11*
X9096800Y-9481555D02*
X9115848Y-9481555D01*
X9115848Y-9481555D02*
X9134896Y-9491079D01*
X9134896Y-9491079D02*
X9144420Y-9500603D01*
X9144420Y-9500603D02*
X9153943Y-9519651D01*
X9153943Y-9519651D02*
X9163467Y-9557746D01*
X9163467Y-9557746D02*
X9163467Y-9605365D01*
X9163467Y-9605365D02*
X9153943Y-9643460D01*
X9153943Y-9643460D02*
X9144420Y-9662508D01*
X9144420Y-9662508D02*
X9134896Y-9672032D01*
X9134896Y-9672032D02*
X9115848Y-9681555D01*
X9115848Y-9681555D02*
X9096800Y-9681555D01*
X9096800Y-9681555D02*
X9077753Y-9672032D01*
X9077753Y-9672032D02*
X9068229Y-9662508D01*
X9068229Y-9662508D02*
X9058705Y-9643460D01*
X9058705Y-9643460D02*
X9049181Y-9605365D01*
X9049181Y-9605365D02*
X9049181Y-9557746D01*
X9049181Y-9557746D02*
X9058705Y-9519651D01*
X9058705Y-9519651D02*
X9068229Y-9500603D01*
X9068229Y-9500603D02*
X9077753Y-9491079D01*
X9077753Y-9491079D02*
X9096800Y-9481555D01*
X9249181Y-9662508D02*
X9258705Y-9672032D01*
X9258705Y-9672032D02*
X9249181Y-9681555D01*
X9249181Y-9681555D02*
X9239658Y-9672032D01*
X9239658Y-9672032D02*
X9249181Y-9662508D01*
X9249181Y-9662508D02*
X9249181Y-9681555D01*
X9372991Y-9567270D02*
X9353943Y-9557746D01*
X9353943Y-9557746D02*
X9344420Y-9548222D01*
X9344420Y-9548222D02*
X9334896Y-9529174D01*
X9334896Y-9529174D02*
X9334896Y-9519651D01*
X9334896Y-9519651D02*
X9344420Y-9500603D01*
X9344420Y-9500603D02*
X9353943Y-9491079D01*
X9353943Y-9491079D02*
X9372991Y-9481555D01*
X9372991Y-9481555D02*
X9411086Y-9481555D01*
X9411086Y-9481555D02*
X9430134Y-9491079D01*
X9430134Y-9491079D02*
X9439658Y-9500603D01*
X9439658Y-9500603D02*
X9449181Y-9519651D01*
X9449181Y-9519651D02*
X9449181Y-9529174D01*
X9449181Y-9529174D02*
X9439658Y-9548222D01*
X9439658Y-9548222D02*
X9430134Y-9557746D01*
X9430134Y-9557746D02*
X9411086Y-9567270D01*
X9411086Y-9567270D02*
X9372991Y-9567270D01*
X9372991Y-9567270D02*
X9353943Y-9576794D01*
X9353943Y-9576794D02*
X9344420Y-9586317D01*
X9344420Y-9586317D02*
X9334896Y-9605365D01*
X9334896Y-9605365D02*
X9334896Y-9643460D01*
X9334896Y-9643460D02*
X9344420Y-9662508D01*
X9344420Y-9662508D02*
X9353943Y-9672032D01*
X9353943Y-9672032D02*
X9372991Y-9681555D01*
X9372991Y-9681555D02*
X9411086Y-9681555D01*
X9411086Y-9681555D02*
X9430134Y-9672032D01*
X9430134Y-9672032D02*
X9439658Y-9662508D01*
X9439658Y-9662508D02*
X9449181Y-9643460D01*
X9449181Y-9643460D02*
X9449181Y-9605365D01*
X9449181Y-9605365D02*
X9439658Y-9586317D01*
X9439658Y-9586317D02*
X9430134Y-9576794D01*
X9430134Y-9576794D02*
X9411086Y-9567270D01*
X9630134Y-9481555D02*
X9534896Y-9481555D01*
X9534896Y-9481555D02*
X9525372Y-9576794D01*
X9525372Y-9576794D02*
X9534896Y-9567270D01*
X9534896Y-9567270D02*
X9553943Y-9557746D01*
X9553943Y-9557746D02*
X9601562Y-9557746D01*
X9601562Y-9557746D02*
X9620610Y-9567270D01*
X9620610Y-9567270D02*
X9630134Y-9576794D01*
X9630134Y-9576794D02*
X9639658Y-9595841D01*
X9639658Y-9595841D02*
X9639658Y-9643460D01*
X9639658Y-9643460D02*
X9630134Y-9662508D01*
X9630134Y-9662508D02*
X9620610Y-9672032D01*
X9620610Y-9672032D02*
X9601562Y-9681555D01*
X9601562Y-9681555D02*
X9553943Y-9681555D01*
X9553943Y-9681555D02*
X9534896Y-9672032D01*
X9534896Y-9672032D02*
X9525372Y-9662508D01*
X9763467Y-9481555D02*
X9782515Y-9481555D01*
X9782515Y-9481555D02*
X9801562Y-9491079D01*
X9801562Y-9491079D02*
X9811086Y-9500603D01*
X9811086Y-9500603D02*
X9820610Y-9519651D01*
X9820610Y-9519651D02*
X9830134Y-9557746D01*
X9830134Y-9557746D02*
X9830134Y-9605365D01*
X9830134Y-9605365D02*
X9820610Y-9643460D01*
X9820610Y-9643460D02*
X9811086Y-9662508D01*
X9811086Y-9662508D02*
X9801562Y-9672032D01*
X9801562Y-9672032D02*
X9782515Y-9681555D01*
X9782515Y-9681555D02*
X9763467Y-9681555D01*
X9763467Y-9681555D02*
X9744420Y-9672032D01*
X9744420Y-9672032D02*
X9734896Y-9662508D01*
X9734896Y-9662508D02*
X9725372Y-9643460D01*
X9725372Y-9643460D02*
X9715848Y-9605365D01*
X9715848Y-9605365D02*
X9715848Y-9557746D01*
X9715848Y-9557746D02*
X9725372Y-9519651D01*
X9725372Y-9519651D02*
X9734896Y-9500603D01*
X9734896Y-9500603D02*
X9744420Y-9491079D01*
X9744420Y-9491079D02*
X9763467Y-9481555D01*
X9915848Y-9681555D02*
X9915848Y-9548222D01*
X9915848Y-9567270D02*
X9925372Y-9557746D01*
X9925372Y-9557746D02*
X9944420Y-9548222D01*
X9944420Y-9548222D02*
X9972991Y-9548222D01*
X9972991Y-9548222D02*
X9992039Y-9557746D01*
X9992039Y-9557746D02*
X10001562Y-9576794D01*
X10001562Y-9576794D02*
X10001562Y-9681555D01*
X10001562Y-9576794D02*
X10011086Y-9557746D01*
X10011086Y-9557746D02*
X10030134Y-9548222D01*
X10030134Y-9548222D02*
X10058705Y-9548222D01*
X10058705Y-9548222D02*
X10077753Y-9557746D01*
X10077753Y-9557746D02*
X10087277Y-9576794D01*
X10087277Y-9576794D02*
X10087277Y-9681555D01*
X10182515Y-9681555D02*
X10182515Y-9548222D01*
X10182515Y-9567270D02*
X10192039Y-9557746D01*
X10192039Y-9557746D02*
X10211086Y-9548222D01*
X10211086Y-9548222D02*
X10239658Y-9548222D01*
X10239658Y-9548222D02*
X10258705Y-9557746D01*
X10258705Y-9557746D02*
X10268229Y-9576794D01*
X10268229Y-9576794D02*
X10268229Y-9681555D01*
X10268229Y-9576794D02*
X10277753Y-9557746D01*
X10277753Y-9557746D02*
X10296801Y-9548222D01*
X10296801Y-9548222D02*
X10325372Y-9548222D01*
X10325372Y-9548222D02*
X10344420Y-9557746D01*
X10344420Y-9557746D02*
X10353943Y-9576794D01*
X10353943Y-9576794D02*
X10353943Y-9681555D01*
X10744420Y-9472032D02*
X10572991Y-9729174D01*
X11001563Y-9481555D02*
X11020610Y-9481555D01*
X11020610Y-9481555D02*
X11039658Y-9491079D01*
X11039658Y-9491079D02*
X11049182Y-9500603D01*
X11049182Y-9500603D02*
X11058705Y-9519651D01*
X11058705Y-9519651D02*
X11068229Y-9557746D01*
X11068229Y-9557746D02*
X11068229Y-9605365D01*
X11068229Y-9605365D02*
X11058705Y-9643460D01*
X11058705Y-9643460D02*
X11049182Y-9662508D01*
X11049182Y-9662508D02*
X11039658Y-9672032D01*
X11039658Y-9672032D02*
X11020610Y-9681555D01*
X11020610Y-9681555D02*
X11001563Y-9681555D01*
X11001563Y-9681555D02*
X10982515Y-9672032D01*
X10982515Y-9672032D02*
X10972991Y-9662508D01*
X10972991Y-9662508D02*
X10963467Y-9643460D01*
X10963467Y-9643460D02*
X10953944Y-9605365D01*
X10953944Y-9605365D02*
X10953944Y-9557746D01*
X10953944Y-9557746D02*
X10963467Y-9519651D01*
X10963467Y-9519651D02*
X10972991Y-9500603D01*
X10972991Y-9500603D02*
X10982515Y-9491079D01*
X10982515Y-9491079D02*
X11001563Y-9481555D01*
X11153944Y-9662508D02*
X11163467Y-9672032D01*
X11163467Y-9672032D02*
X11153944Y-9681555D01*
X11153944Y-9681555D02*
X11144420Y-9672032D01*
X11144420Y-9672032D02*
X11153944Y-9662508D01*
X11153944Y-9662508D02*
X11153944Y-9681555D01*
X11287277Y-9481555D02*
X11306324Y-9481555D01*
X11306324Y-9481555D02*
X11325372Y-9491079D01*
X11325372Y-9491079D02*
X11334896Y-9500603D01*
X11334896Y-9500603D02*
X11344420Y-9519651D01*
X11344420Y-9519651D02*
X11353943Y-9557746D01*
X11353943Y-9557746D02*
X11353943Y-9605365D01*
X11353943Y-9605365D02*
X11344420Y-9643460D01*
X11344420Y-9643460D02*
X11334896Y-9662508D01*
X11334896Y-9662508D02*
X11325372Y-9672032D01*
X11325372Y-9672032D02*
X11306324Y-9681555D01*
X11306324Y-9681555D02*
X11287277Y-9681555D01*
X11287277Y-9681555D02*
X11268229Y-9672032D01*
X11268229Y-9672032D02*
X11258705Y-9662508D01*
X11258705Y-9662508D02*
X11249182Y-9643460D01*
X11249182Y-9643460D02*
X11239658Y-9605365D01*
X11239658Y-9605365D02*
X11239658Y-9557746D01*
X11239658Y-9557746D02*
X11249182Y-9519651D01*
X11249182Y-9519651D02*
X11258705Y-9500603D01*
X11258705Y-9500603D02*
X11268229Y-9491079D01*
X11268229Y-9491079D02*
X11287277Y-9481555D01*
X11420610Y-9481555D02*
X11544420Y-9481555D01*
X11544420Y-9481555D02*
X11477753Y-9557746D01*
X11477753Y-9557746D02*
X11506324Y-9557746D01*
X11506324Y-9557746D02*
X11525372Y-9567270D01*
X11525372Y-9567270D02*
X11534896Y-9576794D01*
X11534896Y-9576794D02*
X11544420Y-9595841D01*
X11544420Y-9595841D02*
X11544420Y-9643460D01*
X11544420Y-9643460D02*
X11534896Y-9662508D01*
X11534896Y-9662508D02*
X11525372Y-9672032D01*
X11525372Y-9672032D02*
X11506324Y-9681555D01*
X11506324Y-9681555D02*
X11449182Y-9681555D01*
X11449182Y-9681555D02*
X11430134Y-9672032D01*
X11430134Y-9672032D02*
X11420610Y-9662508D01*
X11611086Y-9481555D02*
X11734896Y-9481555D01*
X11734896Y-9481555D02*
X11668229Y-9557746D01*
X11668229Y-9557746D02*
X11696801Y-9557746D01*
X11696801Y-9557746D02*
X11715848Y-9567270D01*
X11715848Y-9567270D02*
X11725372Y-9576794D01*
X11725372Y-9576794D02*
X11734896Y-9595841D01*
X11734896Y-9595841D02*
X11734896Y-9643460D01*
X11734896Y-9643460D02*
X11725372Y-9662508D01*
X11725372Y-9662508D02*
X11715848Y-9672032D01*
X11715848Y-9672032D02*
X11696801Y-9681555D01*
X11696801Y-9681555D02*
X11639658Y-9681555D01*
X11639658Y-9681555D02*
X11620610Y-9672032D01*
X11620610Y-9672032D02*
X11611086Y-9662508D01*
X11915848Y-9481555D02*
X11820610Y-9481555D01*
X11820610Y-9481555D02*
X11811086Y-9576794D01*
X11811086Y-9576794D02*
X11820610Y-9567270D01*
X11820610Y-9567270D02*
X11839658Y-9557746D01*
X11839658Y-9557746D02*
X11887277Y-9557746D01*
X11887277Y-9557746D02*
X11906324Y-9567270D01*
X11906324Y-9567270D02*
X11915848Y-9576794D01*
X11915848Y-9576794D02*
X11925372Y-9595841D01*
X11925372Y-9595841D02*
X11925372Y-9643460D01*
X11925372Y-9643460D02*
X11915848Y-9662508D01*
X11915848Y-9662508D02*
X11906324Y-9672032D01*
X11906324Y-9672032D02*
X11887277Y-9681555D01*
X11887277Y-9681555D02*
X11839658Y-9681555D01*
X11839658Y-9681555D02*
X11820610Y-9672032D01*
X11820610Y-9672032D02*
X11811086Y-9662508D01*
X12001563Y-9481555D02*
X12001563Y-9519651D01*
X12077753Y-9481555D02*
X12077753Y-9519651D01*
X12372991Y-9757746D02*
X12363467Y-9748222D01*
X12363467Y-9748222D02*
X12344420Y-9719651D01*
X12344420Y-9719651D02*
X12334896Y-9700603D01*
X12334896Y-9700603D02*
X12325372Y-9672032D01*
X12325372Y-9672032D02*
X12315848Y-9624413D01*
X12315848Y-9624413D02*
X12315848Y-9586317D01*
X12315848Y-9586317D02*
X12325372Y-9538698D01*
X12325372Y-9538698D02*
X12334896Y-9510127D01*
X12334896Y-9510127D02*
X12344420Y-9491079D01*
X12344420Y-9491079D02*
X12363467Y-9462508D01*
X12363467Y-9462508D02*
X12372991Y-9452984D01*
X12487277Y-9481555D02*
X12506325Y-9481555D01*
X12506325Y-9481555D02*
X12525372Y-9491079D01*
X12525372Y-9491079D02*
X12534896Y-9500603D01*
X12534896Y-9500603D02*
X12544420Y-9519651D01*
X12544420Y-9519651D02*
X12553944Y-9557746D01*
X12553944Y-9557746D02*
X12553944Y-9605365D01*
X12553944Y-9605365D02*
X12544420Y-9643460D01*
X12544420Y-9643460D02*
X12534896Y-9662508D01*
X12534896Y-9662508D02*
X12525372Y-9672032D01*
X12525372Y-9672032D02*
X12506325Y-9681555D01*
X12506325Y-9681555D02*
X12487277Y-9681555D01*
X12487277Y-9681555D02*
X12468229Y-9672032D01*
X12468229Y-9672032D02*
X12458705Y-9662508D01*
X12458705Y-9662508D02*
X12449182Y-9643460D01*
X12449182Y-9643460D02*
X12439658Y-9605365D01*
X12439658Y-9605365D02*
X12439658Y-9557746D01*
X12439658Y-9557746D02*
X12449182Y-9519651D01*
X12449182Y-9519651D02*
X12458705Y-9500603D01*
X12458705Y-9500603D02*
X12468229Y-9491079D01*
X12468229Y-9491079D02*
X12487277Y-9481555D01*
X12792039Y-9681555D02*
X12792039Y-9481555D01*
X12877753Y-9681555D02*
X12877753Y-9576794D01*
X12877753Y-9576794D02*
X12868229Y-9557746D01*
X12868229Y-9557746D02*
X12849182Y-9548222D01*
X12849182Y-9548222D02*
X12820610Y-9548222D01*
X12820610Y-9548222D02*
X12801563Y-9557746D01*
X12801563Y-9557746D02*
X12792039Y-9567270D01*
X13001563Y-9681555D02*
X12982515Y-9672032D01*
X12982515Y-9672032D02*
X12972991Y-9662508D01*
X12972991Y-9662508D02*
X12963467Y-9643460D01*
X12963467Y-9643460D02*
X12963467Y-9586317D01*
X12963467Y-9586317D02*
X12972991Y-9567270D01*
X12972991Y-9567270D02*
X12982515Y-9557746D01*
X12982515Y-9557746D02*
X13001563Y-9548222D01*
X13001563Y-9548222D02*
X13030134Y-9548222D01*
X13030134Y-9548222D02*
X13049182Y-9557746D01*
X13049182Y-9557746D02*
X13058706Y-9567270D01*
X13058706Y-9567270D02*
X13068229Y-9586317D01*
X13068229Y-9586317D02*
X13068229Y-9643460D01*
X13068229Y-9643460D02*
X13058706Y-9662508D01*
X13058706Y-9662508D02*
X13049182Y-9672032D01*
X13049182Y-9672032D02*
X13030134Y-9681555D01*
X13030134Y-9681555D02*
X13001563Y-9681555D01*
X13182515Y-9681555D02*
X13163467Y-9672032D01*
X13163467Y-9672032D02*
X13153944Y-9652984D01*
X13153944Y-9652984D02*
X13153944Y-9481555D01*
X13334896Y-9672032D02*
X13315848Y-9681555D01*
X13315848Y-9681555D02*
X13277753Y-9681555D01*
X13277753Y-9681555D02*
X13258706Y-9672032D01*
X13258706Y-9672032D02*
X13249182Y-9652984D01*
X13249182Y-9652984D02*
X13249182Y-9576794D01*
X13249182Y-9576794D02*
X13258706Y-9557746D01*
X13258706Y-9557746D02*
X13277753Y-9548222D01*
X13277753Y-9548222D02*
X13315848Y-9548222D01*
X13315848Y-9548222D02*
X13334896Y-9557746D01*
X13334896Y-9557746D02*
X13344420Y-9576794D01*
X13344420Y-9576794D02*
X13344420Y-9595841D01*
X13344420Y-9595841D02*
X13249182Y-9614889D01*
X13420610Y-9672032D02*
X13439658Y-9681555D01*
X13439658Y-9681555D02*
X13477753Y-9681555D01*
X13477753Y-9681555D02*
X13496801Y-9672032D01*
X13496801Y-9672032D02*
X13506325Y-9652984D01*
X13506325Y-9652984D02*
X13506325Y-9643460D01*
X13506325Y-9643460D02*
X13496801Y-9624413D01*
X13496801Y-9624413D02*
X13477753Y-9614889D01*
X13477753Y-9614889D02*
X13449182Y-9614889D01*
X13449182Y-9614889D02*
X13430134Y-9605365D01*
X13430134Y-9605365D02*
X13420610Y-9586317D01*
X13420610Y-9586317D02*
X13420610Y-9576794D01*
X13420610Y-9576794D02*
X13430134Y-9557746D01*
X13430134Y-9557746D02*
X13449182Y-9548222D01*
X13449182Y-9548222D02*
X13477753Y-9548222D01*
X13477753Y-9548222D02*
X13496801Y-9557746D01*
X13744420Y-9605365D02*
X13896801Y-9605365D01*
X13820610Y-9681555D02*
X13820610Y-9529174D01*
X14134896Y-9500603D02*
X14144420Y-9491079D01*
X14144420Y-9491079D02*
X14163468Y-9481555D01*
X14163468Y-9481555D02*
X14211087Y-9481555D01*
X14211087Y-9481555D02*
X14230134Y-9491079D01*
X14230134Y-9491079D02*
X14239658Y-9500603D01*
X14239658Y-9500603D02*
X14249182Y-9519651D01*
X14249182Y-9519651D02*
X14249182Y-9538698D01*
X14249182Y-9538698D02*
X14239658Y-9567270D01*
X14239658Y-9567270D02*
X14125372Y-9681555D01*
X14125372Y-9681555D02*
X14249182Y-9681555D01*
X14477753Y-9672032D02*
X14496801Y-9681555D01*
X14496801Y-9681555D02*
X14534896Y-9681555D01*
X14534896Y-9681555D02*
X14553944Y-9672032D01*
X14553944Y-9672032D02*
X14563468Y-9652984D01*
X14563468Y-9652984D02*
X14563468Y-9643460D01*
X14563468Y-9643460D02*
X14553944Y-9624413D01*
X14553944Y-9624413D02*
X14534896Y-9614889D01*
X14534896Y-9614889D02*
X14506325Y-9614889D01*
X14506325Y-9614889D02*
X14487277Y-9605365D01*
X14487277Y-9605365D02*
X14477753Y-9586317D01*
X14477753Y-9586317D02*
X14477753Y-9576794D01*
X14477753Y-9576794D02*
X14487277Y-9557746D01*
X14487277Y-9557746D02*
X14506325Y-9548222D01*
X14506325Y-9548222D02*
X14534896Y-9548222D01*
X14534896Y-9548222D02*
X14553944Y-9557746D01*
X14677753Y-9681555D02*
X14658706Y-9672032D01*
X14658706Y-9672032D02*
X14649182Y-9652984D01*
X14649182Y-9652984D02*
X14649182Y-9481555D01*
X14782515Y-9681555D02*
X14763468Y-9672032D01*
X14763468Y-9672032D02*
X14753944Y-9662508D01*
X14753944Y-9662508D02*
X14744420Y-9643460D01*
X14744420Y-9643460D02*
X14744420Y-9586317D01*
X14744420Y-9586317D02*
X14753944Y-9567270D01*
X14753944Y-9567270D02*
X14763468Y-9557746D01*
X14763468Y-9557746D02*
X14782515Y-9548222D01*
X14782515Y-9548222D02*
X14811087Y-9548222D01*
X14811087Y-9548222D02*
X14830134Y-9557746D01*
X14830134Y-9557746D02*
X14839658Y-9567270D01*
X14839658Y-9567270D02*
X14849182Y-9586317D01*
X14849182Y-9586317D02*
X14849182Y-9643460D01*
X14849182Y-9643460D02*
X14839658Y-9662508D01*
X14839658Y-9662508D02*
X14830134Y-9672032D01*
X14830134Y-9672032D02*
X14811087Y-9681555D01*
X14811087Y-9681555D02*
X14782515Y-9681555D01*
X14906325Y-9548222D02*
X14982515Y-9548222D01*
X14934896Y-9481555D02*
X14934896Y-9652984D01*
X14934896Y-9652984D02*
X14944420Y-9672032D01*
X14944420Y-9672032D02*
X14963468Y-9681555D01*
X14963468Y-9681555D02*
X14982515Y-9681555D01*
X15039658Y-9672032D02*
X15058706Y-9681555D01*
X15058706Y-9681555D02*
X15096801Y-9681555D01*
X15096801Y-9681555D02*
X15115849Y-9672032D01*
X15115849Y-9672032D02*
X15125372Y-9652984D01*
X15125372Y-9652984D02*
X15125372Y-9643460D01*
X15125372Y-9643460D02*
X15115849Y-9624413D01*
X15115849Y-9624413D02*
X15096801Y-9614889D01*
X15096801Y-9614889D02*
X15068230Y-9614889D01*
X15068230Y-9614889D02*
X15049182Y-9605365D01*
X15049182Y-9605365D02*
X15039658Y-9586317D01*
X15039658Y-9586317D02*
X15039658Y-9576794D01*
X15039658Y-9576794D02*
X15049182Y-9557746D01*
X15049182Y-9557746D02*
X15068230Y-9548222D01*
X15068230Y-9548222D02*
X15096801Y-9548222D01*
X15096801Y-9548222D02*
X15115849Y-9557746D01*
X15192039Y-9757746D02*
X15201563Y-9748222D01*
X15201563Y-9748222D02*
X15220611Y-9719651D01*
X15220611Y-9719651D02*
X15230134Y-9700603D01*
X15230134Y-9700603D02*
X15239658Y-9672032D01*
X15239658Y-9672032D02*
X15249182Y-9624413D01*
X15249182Y-9624413D02*
X15249182Y-9586317D01*
X15249182Y-9586317D02*
X15239658Y-9538698D01*
X15239658Y-9538698D02*
X15230134Y-9510127D01*
X15230134Y-9510127D02*
X15220611Y-9491079D01*
X15220611Y-9491079D02*
X15201563Y-9462508D01*
X15201563Y-9462508D02*
X15192039Y-9452984D01*
D12*
X8783284Y-9889427D02*
X8783284Y-9818716D01*
X8712573Y-9818716D01*
X8712573Y-9889427D01*
X8783284Y-9889427D01*
D11*
X9163467Y-9945555D02*
X9049181Y-9945555D01*
X9106324Y-9945555D02*
X9106324Y-9745555D01*
X9106324Y-9745555D02*
X9087277Y-9774127D01*
X9087277Y-9774127D02*
X9068229Y-9793174D01*
X9068229Y-9793174D02*
X9049181Y-9802698D01*
X9249181Y-9926508D02*
X9258705Y-9936032D01*
X9258705Y-9936032D02*
X9249181Y-9945555D01*
X9249181Y-9945555D02*
X9239658Y-9936032D01*
X9239658Y-9936032D02*
X9249181Y-9926508D01*
X9249181Y-9926508D02*
X9249181Y-9945555D01*
X9382515Y-9745555D02*
X9401562Y-9745555D01*
X9401562Y-9745555D02*
X9420610Y-9755079D01*
X9420610Y-9755079D02*
X9430134Y-9764603D01*
X9430134Y-9764603D02*
X9439658Y-9783651D01*
X9439658Y-9783651D02*
X9449181Y-9821746D01*
X9449181Y-9821746D02*
X9449181Y-9869365D01*
X9449181Y-9869365D02*
X9439658Y-9907460D01*
X9439658Y-9907460D02*
X9430134Y-9926508D01*
X9430134Y-9926508D02*
X9420610Y-9936032D01*
X9420610Y-9936032D02*
X9401562Y-9945555D01*
X9401562Y-9945555D02*
X9382515Y-9945555D01*
X9382515Y-9945555D02*
X9363467Y-9936032D01*
X9363467Y-9936032D02*
X9353943Y-9926508D01*
X9353943Y-9926508D02*
X9344420Y-9907460D01*
X9344420Y-9907460D02*
X9334896Y-9869365D01*
X9334896Y-9869365D02*
X9334896Y-9821746D01*
X9334896Y-9821746D02*
X9344420Y-9783651D01*
X9344420Y-9783651D02*
X9353943Y-9764603D01*
X9353943Y-9764603D02*
X9363467Y-9755079D01*
X9363467Y-9755079D02*
X9382515Y-9745555D01*
X9572991Y-9745555D02*
X9592039Y-9745555D01*
X9592039Y-9745555D02*
X9611086Y-9755079D01*
X9611086Y-9755079D02*
X9620610Y-9764603D01*
X9620610Y-9764603D02*
X9630134Y-9783651D01*
X9630134Y-9783651D02*
X9639658Y-9821746D01*
X9639658Y-9821746D02*
X9639658Y-9869365D01*
X9639658Y-9869365D02*
X9630134Y-9907460D01*
X9630134Y-9907460D02*
X9620610Y-9926508D01*
X9620610Y-9926508D02*
X9611086Y-9936032D01*
X9611086Y-9936032D02*
X9592039Y-9945555D01*
X9592039Y-9945555D02*
X9572991Y-9945555D01*
X9572991Y-9945555D02*
X9553943Y-9936032D01*
X9553943Y-9936032D02*
X9544420Y-9926508D01*
X9544420Y-9926508D02*
X9534896Y-9907460D01*
X9534896Y-9907460D02*
X9525372Y-9869365D01*
X9525372Y-9869365D02*
X9525372Y-9821746D01*
X9525372Y-9821746D02*
X9534896Y-9783651D01*
X9534896Y-9783651D02*
X9544420Y-9764603D01*
X9544420Y-9764603D02*
X9553943Y-9755079D01*
X9553943Y-9755079D02*
X9572991Y-9745555D01*
X9763467Y-9745555D02*
X9782515Y-9745555D01*
X9782515Y-9745555D02*
X9801562Y-9755079D01*
X9801562Y-9755079D02*
X9811086Y-9764603D01*
X9811086Y-9764603D02*
X9820610Y-9783651D01*
X9820610Y-9783651D02*
X9830134Y-9821746D01*
X9830134Y-9821746D02*
X9830134Y-9869365D01*
X9830134Y-9869365D02*
X9820610Y-9907460D01*
X9820610Y-9907460D02*
X9811086Y-9926508D01*
X9811086Y-9926508D02*
X9801562Y-9936032D01*
X9801562Y-9936032D02*
X9782515Y-9945555D01*
X9782515Y-9945555D02*
X9763467Y-9945555D01*
X9763467Y-9945555D02*
X9744420Y-9936032D01*
X9744420Y-9936032D02*
X9734896Y-9926508D01*
X9734896Y-9926508D02*
X9725372Y-9907460D01*
X9725372Y-9907460D02*
X9715848Y-9869365D01*
X9715848Y-9869365D02*
X9715848Y-9821746D01*
X9715848Y-9821746D02*
X9725372Y-9783651D01*
X9725372Y-9783651D02*
X9734896Y-9764603D01*
X9734896Y-9764603D02*
X9744420Y-9755079D01*
X9744420Y-9755079D02*
X9763467Y-9745555D01*
X9915848Y-9945555D02*
X9915848Y-9812222D01*
X9915848Y-9831270D02*
X9925372Y-9821746D01*
X9925372Y-9821746D02*
X9944420Y-9812222D01*
X9944420Y-9812222D02*
X9972991Y-9812222D01*
X9972991Y-9812222D02*
X9992039Y-9821746D01*
X9992039Y-9821746D02*
X10001562Y-9840794D01*
X10001562Y-9840794D02*
X10001562Y-9945555D01*
X10001562Y-9840794D02*
X10011086Y-9821746D01*
X10011086Y-9821746D02*
X10030134Y-9812222D01*
X10030134Y-9812222D02*
X10058705Y-9812222D01*
X10058705Y-9812222D02*
X10077753Y-9821746D01*
X10077753Y-9821746D02*
X10087277Y-9840794D01*
X10087277Y-9840794D02*
X10087277Y-9945555D01*
X10182515Y-9945555D02*
X10182515Y-9812222D01*
X10182515Y-9831270D02*
X10192039Y-9821746D01*
X10192039Y-9821746D02*
X10211086Y-9812222D01*
X10211086Y-9812222D02*
X10239658Y-9812222D01*
X10239658Y-9812222D02*
X10258705Y-9821746D01*
X10258705Y-9821746D02*
X10268229Y-9840794D01*
X10268229Y-9840794D02*
X10268229Y-9945555D01*
X10268229Y-9840794D02*
X10277753Y-9821746D01*
X10277753Y-9821746D02*
X10296801Y-9812222D01*
X10296801Y-9812222D02*
X10325372Y-9812222D01*
X10325372Y-9812222D02*
X10344420Y-9821746D01*
X10344420Y-9821746D02*
X10353943Y-9840794D01*
X10353943Y-9840794D02*
X10353943Y-9945555D01*
X10744420Y-9736032D02*
X10572991Y-9993174D01*
X11001563Y-9745555D02*
X11020610Y-9745555D01*
X11020610Y-9745555D02*
X11039658Y-9755079D01*
X11039658Y-9755079D02*
X11049182Y-9764603D01*
X11049182Y-9764603D02*
X11058705Y-9783651D01*
X11058705Y-9783651D02*
X11068229Y-9821746D01*
X11068229Y-9821746D02*
X11068229Y-9869365D01*
X11068229Y-9869365D02*
X11058705Y-9907460D01*
X11058705Y-9907460D02*
X11049182Y-9926508D01*
X11049182Y-9926508D02*
X11039658Y-9936032D01*
X11039658Y-9936032D02*
X11020610Y-9945555D01*
X11020610Y-9945555D02*
X11001563Y-9945555D01*
X11001563Y-9945555D02*
X10982515Y-9936032D01*
X10982515Y-9936032D02*
X10972991Y-9926508D01*
X10972991Y-9926508D02*
X10963467Y-9907460D01*
X10963467Y-9907460D02*
X10953944Y-9869365D01*
X10953944Y-9869365D02*
X10953944Y-9821746D01*
X10953944Y-9821746D02*
X10963467Y-9783651D01*
X10963467Y-9783651D02*
X10972991Y-9764603D01*
X10972991Y-9764603D02*
X10982515Y-9755079D01*
X10982515Y-9755079D02*
X11001563Y-9745555D01*
X11153944Y-9926508D02*
X11163467Y-9936032D01*
X11163467Y-9936032D02*
X11153944Y-9945555D01*
X11153944Y-9945555D02*
X11144420Y-9936032D01*
X11144420Y-9936032D02*
X11153944Y-9926508D01*
X11153944Y-9926508D02*
X11153944Y-9945555D01*
X11287277Y-9745555D02*
X11306324Y-9745555D01*
X11306324Y-9745555D02*
X11325372Y-9755079D01*
X11325372Y-9755079D02*
X11334896Y-9764603D01*
X11334896Y-9764603D02*
X11344420Y-9783651D01*
X11344420Y-9783651D02*
X11353943Y-9821746D01*
X11353943Y-9821746D02*
X11353943Y-9869365D01*
X11353943Y-9869365D02*
X11344420Y-9907460D01*
X11344420Y-9907460D02*
X11334896Y-9926508D01*
X11334896Y-9926508D02*
X11325372Y-9936032D01*
X11325372Y-9936032D02*
X11306324Y-9945555D01*
X11306324Y-9945555D02*
X11287277Y-9945555D01*
X11287277Y-9945555D02*
X11268229Y-9936032D01*
X11268229Y-9936032D02*
X11258705Y-9926508D01*
X11258705Y-9926508D02*
X11249182Y-9907460D01*
X11249182Y-9907460D02*
X11239658Y-9869365D01*
X11239658Y-9869365D02*
X11239658Y-9821746D01*
X11239658Y-9821746D02*
X11249182Y-9783651D01*
X11249182Y-9783651D02*
X11258705Y-9764603D01*
X11258705Y-9764603D02*
X11268229Y-9755079D01*
X11268229Y-9755079D02*
X11287277Y-9745555D01*
X11420610Y-9745555D02*
X11544420Y-9745555D01*
X11544420Y-9745555D02*
X11477753Y-9821746D01*
X11477753Y-9821746D02*
X11506324Y-9821746D01*
X11506324Y-9821746D02*
X11525372Y-9831270D01*
X11525372Y-9831270D02*
X11534896Y-9840794D01*
X11534896Y-9840794D02*
X11544420Y-9859841D01*
X11544420Y-9859841D02*
X11544420Y-9907460D01*
X11544420Y-9907460D02*
X11534896Y-9926508D01*
X11534896Y-9926508D02*
X11525372Y-9936032D01*
X11525372Y-9936032D02*
X11506324Y-9945555D01*
X11506324Y-9945555D02*
X11449182Y-9945555D01*
X11449182Y-9945555D02*
X11430134Y-9936032D01*
X11430134Y-9936032D02*
X11420610Y-9926508D01*
X11639658Y-9945555D02*
X11677753Y-9945555D01*
X11677753Y-9945555D02*
X11696801Y-9936032D01*
X11696801Y-9936032D02*
X11706324Y-9926508D01*
X11706324Y-9926508D02*
X11725372Y-9897936D01*
X11725372Y-9897936D02*
X11734896Y-9859841D01*
X11734896Y-9859841D02*
X11734896Y-9783651D01*
X11734896Y-9783651D02*
X11725372Y-9764603D01*
X11725372Y-9764603D02*
X11715848Y-9755079D01*
X11715848Y-9755079D02*
X11696801Y-9745555D01*
X11696801Y-9745555D02*
X11658705Y-9745555D01*
X11658705Y-9745555D02*
X11639658Y-9755079D01*
X11639658Y-9755079D02*
X11630134Y-9764603D01*
X11630134Y-9764603D02*
X11620610Y-9783651D01*
X11620610Y-9783651D02*
X11620610Y-9831270D01*
X11620610Y-9831270D02*
X11630134Y-9850317D01*
X11630134Y-9850317D02*
X11639658Y-9859841D01*
X11639658Y-9859841D02*
X11658705Y-9869365D01*
X11658705Y-9869365D02*
X11696801Y-9869365D01*
X11696801Y-9869365D02*
X11715848Y-9859841D01*
X11715848Y-9859841D02*
X11725372Y-9850317D01*
X11725372Y-9850317D02*
X11734896Y-9831270D01*
X11906324Y-9812222D02*
X11906324Y-9945555D01*
X11858705Y-9736032D02*
X11811086Y-9878889D01*
X11811086Y-9878889D02*
X11934896Y-9878889D01*
X12001563Y-9745555D02*
X12001563Y-9783651D01*
X12077753Y-9745555D02*
X12077753Y-9783651D01*
X12372991Y-10021746D02*
X12363467Y-10012222D01*
X12363467Y-10012222D02*
X12344420Y-9983651D01*
X12344420Y-9983651D02*
X12334896Y-9964603D01*
X12334896Y-9964603D02*
X12325372Y-9936032D01*
X12325372Y-9936032D02*
X12315848Y-9888413D01*
X12315848Y-9888413D02*
X12315848Y-9850317D01*
X12315848Y-9850317D02*
X12325372Y-9802698D01*
X12325372Y-9802698D02*
X12334896Y-9774127D01*
X12334896Y-9774127D02*
X12344420Y-9755079D01*
X12344420Y-9755079D02*
X12363467Y-9726508D01*
X12363467Y-9726508D02*
X12372991Y-9716984D01*
X12553944Y-9945555D02*
X12439658Y-9945555D01*
X12496801Y-9945555D02*
X12496801Y-9745555D01*
X12496801Y-9745555D02*
X12477753Y-9774127D01*
X12477753Y-9774127D02*
X12458705Y-9793174D01*
X12458705Y-9793174D02*
X12439658Y-9802698D01*
X12630134Y-9764603D02*
X12639658Y-9755079D01*
X12639658Y-9755079D02*
X12658705Y-9745555D01*
X12658705Y-9745555D02*
X12706325Y-9745555D01*
X12706325Y-9745555D02*
X12725372Y-9755079D01*
X12725372Y-9755079D02*
X12734896Y-9764603D01*
X12734896Y-9764603D02*
X12744420Y-9783651D01*
X12744420Y-9783651D02*
X12744420Y-9802698D01*
X12744420Y-9802698D02*
X12734896Y-9831270D01*
X12734896Y-9831270D02*
X12620610Y-9945555D01*
X12620610Y-9945555D02*
X12744420Y-9945555D01*
X12982515Y-9945555D02*
X12982515Y-9745555D01*
X13068229Y-9945555D02*
X13068229Y-9840794D01*
X13068229Y-9840794D02*
X13058706Y-9821746D01*
X13058706Y-9821746D02*
X13039658Y-9812222D01*
X13039658Y-9812222D02*
X13011086Y-9812222D01*
X13011086Y-9812222D02*
X12992039Y-9821746D01*
X12992039Y-9821746D02*
X12982515Y-9831270D01*
X13192039Y-9945555D02*
X13172991Y-9936032D01*
X13172991Y-9936032D02*
X13163467Y-9926508D01*
X13163467Y-9926508D02*
X13153944Y-9907460D01*
X13153944Y-9907460D02*
X13153944Y-9850317D01*
X13153944Y-9850317D02*
X13163467Y-9831270D01*
X13163467Y-9831270D02*
X13172991Y-9821746D01*
X13172991Y-9821746D02*
X13192039Y-9812222D01*
X13192039Y-9812222D02*
X13220610Y-9812222D01*
X13220610Y-9812222D02*
X13239658Y-9821746D01*
X13239658Y-9821746D02*
X13249182Y-9831270D01*
X13249182Y-9831270D02*
X13258706Y-9850317D01*
X13258706Y-9850317D02*
X13258706Y-9907460D01*
X13258706Y-9907460D02*
X13249182Y-9926508D01*
X13249182Y-9926508D02*
X13239658Y-9936032D01*
X13239658Y-9936032D02*
X13220610Y-9945555D01*
X13220610Y-9945555D02*
X13192039Y-9945555D01*
X13372991Y-9945555D02*
X13353944Y-9936032D01*
X13353944Y-9936032D02*
X13344420Y-9916984D01*
X13344420Y-9916984D02*
X13344420Y-9745555D01*
X13525372Y-9936032D02*
X13506325Y-9945555D01*
X13506325Y-9945555D02*
X13468229Y-9945555D01*
X13468229Y-9945555D02*
X13449182Y-9936032D01*
X13449182Y-9936032D02*
X13439658Y-9916984D01*
X13439658Y-9916984D02*
X13439658Y-9840794D01*
X13439658Y-9840794D02*
X13449182Y-9821746D01*
X13449182Y-9821746D02*
X13468229Y-9812222D01*
X13468229Y-9812222D02*
X13506325Y-9812222D01*
X13506325Y-9812222D02*
X13525372Y-9821746D01*
X13525372Y-9821746D02*
X13534896Y-9840794D01*
X13534896Y-9840794D02*
X13534896Y-9859841D01*
X13534896Y-9859841D02*
X13439658Y-9878889D01*
X13611087Y-9936032D02*
X13630134Y-9945555D01*
X13630134Y-9945555D02*
X13668229Y-9945555D01*
X13668229Y-9945555D02*
X13687277Y-9936032D01*
X13687277Y-9936032D02*
X13696801Y-9916984D01*
X13696801Y-9916984D02*
X13696801Y-9907460D01*
X13696801Y-9907460D02*
X13687277Y-9888413D01*
X13687277Y-9888413D02*
X13668229Y-9878889D01*
X13668229Y-9878889D02*
X13639658Y-9878889D01*
X13639658Y-9878889D02*
X13620610Y-9869365D01*
X13620610Y-9869365D02*
X13611087Y-9850317D01*
X13611087Y-9850317D02*
X13611087Y-9840794D01*
X13611087Y-9840794D02*
X13620610Y-9821746D01*
X13620610Y-9821746D02*
X13639658Y-9812222D01*
X13639658Y-9812222D02*
X13668229Y-9812222D01*
X13668229Y-9812222D02*
X13687277Y-9821746D01*
X13763468Y-10021746D02*
X13772991Y-10012222D01*
X13772991Y-10012222D02*
X13792039Y-9983651D01*
X13792039Y-9983651D02*
X13801563Y-9964603D01*
X13801563Y-9964603D02*
X13811087Y-9936032D01*
X13811087Y-9936032D02*
X13820610Y-9888413D01*
X13820610Y-9888413D02*
X13820610Y-9850317D01*
X13820610Y-9850317D02*
X13811087Y-9802698D01*
X13811087Y-9802698D02*
X13801563Y-9774127D01*
X13801563Y-9774127D02*
X13792039Y-9755079D01*
X13792039Y-9755079D02*
X13772991Y-9726508D01*
X13772991Y-9726508D02*
X13763468Y-9716984D01*
M02*
